<svg width="76" height="76" viewBox="0 0 76 76" fill="none" xmlns="http://www.w3.org/2000/svg">
<path d="M38 68.4001C46.0627 68.4001 53.7951 65.1972 59.496 59.496C65.1972 53.7951 68.4001 46.0625 68.4001 38C68.4001 29.9375 65.1972 22.2052 59.496 16.504C53.7951 10.8028 46.0627 7.59989 38 7.59989C29.9375 7.59989 22.2052 10.8028 16.504 16.504C10.8028 22.2052 7.60016 29.9375 7.60016 38C7.60016 46.0625 10.8028 53.7951 16.504 59.496C22.2052 65.1972 29.9375 68.4001 38 68.4001ZM38 0C42.9904 0 47.9316 0.98287 52.542 2.89249C57.1525 4.8021 61.3415 7.60122 64.8703 11.13C68.3988 14.6585 71.1979 18.8477 73.1075 23.458C75.0171 28.0683 76 33.0098 76 38C76 48.0782 71.9964 57.7436 64.8703 64.87C57.7439 71.9964 48.0782 76 38 76C16.986 76 0 58.8999 0 38C0 27.9218 4.00357 18.2564 11.13 11.13C18.2564 4.00357 27.9218 0 38 0ZM39.9 18.9999V38.9499L57.0001 49.0959L54.1502 53.7701L34.2002 41.8001V18.9999H39.9Z" fill="#F5D00B"/>
</svg>
