<svg width="35" height="35" viewBox="0 0 35 35" fill="none" xmlns="http://www.w3.org/2000/svg">
<g clip-path="url(#clip0_68_617)">
<path d="M10.5714 26.2857V24.8572C10.5714 22.9628 11.324 21.146 12.6635 19.8064C14.0031 18.4669 15.8199 17.7143 17.7143 17.7143M17.7143 17.7143C19.6087 17.7143 21.4255 18.4669 22.765 19.8064C24.1046 21.146 24.8571 22.9628 24.8571 24.8572V26.2857M17.7143 17.7143C18.8509 17.7143 19.941 17.2628 20.7447 16.4591C21.5485 15.6553 22 14.5652 22 13.4286C22 12.292 21.5485 11.2019 20.7447 10.3981C19.941 9.59441 18.8509 9.14288 17.7143 9.14288C16.5776 9.14288 15.4876 9.59441 14.6838 10.3981C13.8801 11.2019 13.4286 12.292 13.4286 13.4286C13.4286 14.5652 13.8801 15.6553 14.6838 16.4591C15.4876 17.2628 16.5776 17.7143 17.7143 17.7143ZM2 26.2857V24.8572C2 23.7205 2.45153 22.6304 3.25526 21.8267C4.05898 21.023 5.14907 20.5715 6.28571 20.5715M6.28571 20.5715C7.04348 20.5715 7.7702 20.2704 8.30602 19.7346C8.84184 19.1988 9.14286 18.4721 9.14286 17.7143C9.14286 16.9565 8.84184 16.2298 8.30602 15.694C7.7702 15.1582 7.04348 14.8572 6.28571 14.8572C5.52795 14.8572 4.80123 15.1582 4.26541 15.694C3.72959 16.2298 3.42857 16.9565 3.42857 17.7143C3.42857 18.4721 3.72959 19.1988 4.26541 19.7346C4.80123 20.2704 5.52795 20.5715 6.28571 20.5715ZM33.4286 26.2857V24.8572C33.4286 23.7205 32.977 22.6304 32.1733 21.8267C31.3696 21.023 30.2795 20.5715 29.1429 20.5715M29.1429 20.5715C29.9006 20.5715 30.6273 20.2704 31.1632 19.7346C31.699 19.1988 32 18.4721 32 17.7143C32 16.9565 31.699 16.2298 31.1632 15.694C30.6273 15.1582 29.9006 14.8572 29.1429 14.8572C28.3851 14.8572 27.6584 15.1582 27.1226 15.694C26.5867 16.2298 26.2857 16.9565 26.2857 17.7143C26.2857 18.4721 26.5867 19.1988 27.1226 19.7346C27.6584 20.2704 28.3851 20.5715 29.1429 20.5715Z" stroke="#F5D00B" stroke-width="2.14286" stroke-linecap="round" stroke-linejoin="round"/>
</g>
<defs>
<clipPath id="clip0_68_617">
<rect width="34.2857" height="34.2857" fill="white" transform="translate(0.571289 0.571411)"/>
</clipPath>
</defs>
</svg>
