<svg width="35" height="35" viewBox="0 0 35 35" fill="none" xmlns="http://www.w3.org/2000/svg">
<path d="M2 32C2 32.7714 2.64286 33.4286 3.42857 33.4286H22C22.8 33.4286 23.4286 32.7714 23.4286 32V30.5714H2V32ZM12.7143 13.4286C7.35714 13.4286 2 16.2857 2 22H23.4286C23.4286 16.2857 18.0714 13.4286 12.7143 13.4286ZM5.74286 19.1429C7.32857 16.9286 10.7 16.2857 12.7143 16.2857C14.7286 16.2857 18.1 16.9286 19.6857 19.1429H5.74286ZM2 24.8571H23.4286V27.7143H2V24.8571ZM26.2857 7.71429V2H23.4286V7.71429H16.2857L16.6143 10.5714H30.2714L28.2714 30.5714H26.2857V33.4286H28.7429C29.9429 33.4286 30.9286 32.5 31.0714 31.3286L33.4286 7.71429H26.2857Z" fill="#F5D00B"/>
</svg>
