<svg width="29" height="29" viewBox="0 0 29 29" fill="none" xmlns="http://www.w3.org/2000/svg">
<g id="Vector">
<path id="Vector_2" opacity="0.6" d="M8.2853 0H20.2847C24.8559 0 28.57 3.7141 28.57 8.2853V20.2847C28.57 22.4821 27.6971 24.5895 26.1433 26.1433C24.5895 27.6971 22.4821 28.57 20.2847 28.57H8.2853C3.7141 28.57 0 24.8559 0 20.2847V8.2853C0 6.0879 0.872913 3.9805 2.42671 2.42671C3.9805 0.872913 6.0879 0 8.2853 0ZM7.9996 2.857C6.6357 2.857 5.32766 3.39881 4.36323 4.36323C3.39881 5.32766 2.857 6.6357 2.857 7.9996V20.5704C2.857 23.4131 5.15688 25.713 7.9996 25.713H20.5704C21.9343 25.713 23.2423 25.1712 24.2068 24.2068C25.1712 23.2423 25.713 21.9343 25.713 20.5704V7.9996C25.713 5.15688 23.4131 2.857 20.5704 2.857H7.9996ZM21.7846 4.99975C22.2582 4.99975 22.7124 5.18788 23.0473 5.52275C23.3821 5.85762 23.5702 6.3118 23.5702 6.78537C23.5702 7.25895 23.3821 7.71313 23.0473 8.048C22.7124 8.38287 22.2582 8.571 21.7846 8.571C21.311 8.571 20.8569 8.38287 20.522 8.048C20.1871 7.71313 19.999 7.25895 19.999 6.78537C19.999 6.3118 20.1871 5.85762 20.522 5.52275C20.8569 5.18788 21.311 4.99975 21.7846 4.99975ZM14.285 7.1425C16.1793 7.1425 17.996 7.89501 19.3355 9.23449C20.675 10.574 21.4275 12.3907 21.4275 14.285C21.4275 16.1793 20.675 17.996 19.3355 19.3355C17.996 20.675 16.1793 21.4275 14.285 21.4275C12.3907 21.4275 10.574 20.675 9.23449 19.3355C7.89501 17.996 7.1425 16.1793 7.1425 14.285C7.1425 12.3907 7.89501 10.574 9.23449 9.23449C10.574 7.89501 12.3907 7.1425 14.285 7.1425ZM14.285 9.9995C13.1484 9.9995 12.0584 10.451 11.2547 11.2547C10.451 12.0584 9.9995 13.1484 9.9995 14.285C9.9995 15.4216 10.451 16.5116 11.2547 17.3153C12.0584 18.119 13.1484 18.5705 14.285 18.5705C15.4216 18.5705 16.5116 18.119 17.3153 17.3153C18.119 16.5116 18.5705 15.4216 18.5705 14.285C18.5705 13.1484 18.119 12.0584 17.3153 11.2547C16.5116 10.451 15.4216 9.9995 14.285 9.9995Z" fill="white"/>
</g>
</svg>
