<svg width="37" height="32" viewBox="0 0 37 32" fill="none" xmlns="http://www.w3.org/2000/svg">
<path id="Vector" d="M36.486 15.7051C36.486 14.9204 36.1743 14.1679 35.6195 13.6131C35.0647 13.0582 34.3121 12.7465 33.5275 12.7465L10.0959 12.7465L17.867 4.97544C18.3896 4.4146 18.6741 3.67282 18.6605 2.90635C18.647 2.13989 18.3365 1.4086 17.7945 0.866541C17.2524 0.324486 16.5211 0.0139866 15.7547 0.000463486C14.9882 -0.0130596 14.2464 0.271448 13.6856 0.794044L0.865235 13.6144C0.311197 14.1691 0 14.9211 0 15.7051C0 16.4891 0.311197 17.241 0.865235 17.7958L13.6856 30.6161C13.9564 30.9068 14.283 31.1399 14.646 31.3016C15.0089 31.4633 15.4006 31.5503 15.7979 31.5573C16.1951 31.5643 16.5897 31.4912 16.9581 31.3424C17.3265 31.1936 17.6611 30.9721 17.9421 30.6912C18.223 30.4103 18.4445 30.0756 18.5933 29.7072C18.7421 29.3388 18.8151 28.9443 18.8081 28.547C18.8011 28.1498 18.7142 27.758 18.5525 27.3951C18.3908 27.0322 18.1576 26.7056 17.867 26.4347L10.0959 18.6636H33.5275C35.1606 18.6636 36.486 17.3382 36.486 15.7051Z" fill="#ED592A"/>
</svg>
