<svg width="29" height="29" viewBox="0 0 29 29" fill="none" xmlns="http://www.w3.org/2000/svg">
<path opacity="0.6" d="M26.2737 0H2.29631C1.02852 0 0 1.02852 0 2.29631V26.2737C0 27.5415 1.02852 28.57 2.29631 28.57H26.2737C27.5415 28.57 28.57 27.5415 28.57 26.2737V2.29631C28.57 1.02852 27.5415 0 26.2737 0ZM26.2737 26.2844C10.2816 26.2808 2.2856 26.2773 2.2856 26.2737C2.28917 10.2816 2.29274 2.2856 2.29631 2.2856C18.2884 2.28917 26.2844 2.29274 26.2844 2.29631C26.2808 18.2884 26.2773 26.2844 26.2737 26.2844ZM4.2355 10.7102H8.47458V24.3452H4.2355V10.7102ZM6.35682 8.84599C7.71033 8.84599 8.81384 7.74604 8.81384 6.38897C8.81384 6.06631 8.75029 5.7468 8.62682 5.44871C8.50334 5.15061 8.32236 4.87975 8.0942 4.65159C7.86605 4.42344 7.59518 4.24245 7.29709 4.11898C6.99899 3.9955 6.67949 3.93195 6.35682 3.93195C6.03416 3.93195 5.71466 3.9955 5.41656 4.11898C5.11846 4.24245 4.84761 4.42344 4.61945 4.65159C4.39129 4.87975 4.21031 5.15061 4.08683 5.44871C3.96336 5.7468 3.8998 6.06631 3.8998 6.38897C3.89623 7.74604 4.99618 8.84599 6.35682 8.84599ZM15.3671 17.5991C15.3671 15.8206 15.7064 14.0993 17.9098 14.0993C20.0811 14.0993 20.1133 16.1313 20.1133 17.7134V24.3452H24.3488V16.867C24.3488 13.1958 23.556 10.3709 19.2669 10.3709C17.2063 10.3709 15.8242 11.503 15.2564 12.5744H15.1992V10.7102H11.1316V24.3452H15.3671V17.5991Z" fill="white"/>
</svg>
