<svg width="37" height="32" viewBox="0 0 37 32" fill="none" xmlns="http://www.w3.org/2000/svg">
<path d="M-7.57524e-06 15.8527C-7.57524e-06 16.6373 0.311696 17.3898 0.86653 17.9447C1.42136 18.4995 2.17388 18.8112 2.95853 18.8112L26.3902 18.8112L18.6191 26.5823C18.0965 27.1431 17.812 27.8849 17.8255 28.6514C17.839 29.4179 18.1495 30.1491 18.6916 30.6912C19.2336 31.2333 19.9649 31.5438 20.7314 31.5573C21.4978 31.5708 22.2396 31.2863 22.8005 30.7637L35.6208 17.9434C36.1748 17.3886 36.486 16.6367 36.486 15.8527C36.486 15.0687 36.1748 14.3167 35.6208 13.762L22.8005 0.941637C22.5296 0.650963 22.203 0.417822 21.8401 0.25612C21.4772 0.0944183 21.0854 0.00746935 20.6882 0.000460435C20.2909 -0.00654848 19.8963 0.0665255 19.5279 0.215324C19.1595 0.364123 18.8249 0.585597 18.544 0.866535C18.263 1.14747 18.0415 1.48212 17.8927 1.85051C17.7439 2.2189 17.6709 2.61349 17.6779 3.01073C17.6849 3.40797 17.7718 3.79974 17.9335 4.16265C18.0952 4.52556 18.3284 4.85218 18.6191 5.12304L26.3902 12.8941L2.95853 12.8941C1.32542 12.8941 -7.57524e-06 14.2196 -7.57524e-06 15.8527Z" fill="white"/>
</svg>
