<svg width="37" height="32" viewBox="0 0 37 32" fill="none" xmlns="http://www.w3.org/2000/svg">
<path id="Vector" d="M0.509998 15.8538C0.509998 16.6385 0.821735 17.3911 1.37663 17.946C1.93152 18.5008 2.68412 18.8126 3.46886 18.8126L26.903 18.8126L19.1311 26.5842C18.6084 27.1451 18.3239 27.8869 18.3374 28.6534C18.351 29.42 18.6615 30.1513 19.2036 30.6934C19.7457 31.2355 20.4771 31.546 21.2436 31.5595C22.0102 31.5731 22.752 31.2885 23.3129 30.7659L36.1347 17.9447C36.6888 17.3899 37 16.6379 37 15.8538C37 15.0697 36.6888 14.3177 36.1347 13.763L23.3129 0.941704C23.0421 0.65101 22.7154 0.417852 22.3525 0.256138C21.9895 0.0944251 21.5977 0.00746988 21.2004 0.000460468C20.8031 -0.00654895 20.4085 0.0665303 20.0401 0.21534C19.6716 0.364149 19.3369 0.585639 19.056 0.866597C18.775 1.14756 18.5535 1.48223 18.4047 1.85064C18.2559 2.21906 18.1828 2.61367 18.1898 3.01095C18.1968 3.40822 18.2838 3.80001 18.4455 4.16295C18.6072 4.52588 18.8404 4.85253 19.1311 5.1234L26.903 12.8951L3.46886 12.8951C1.83557 12.8951 0.509998 14.2206 0.509998 15.8538Z" fill="#ED592A"/>
</svg>
