<svg width="12" height="17" viewBox="0 0 12 17" fill="none" xmlns="http://www.w3.org/2000/svg">
<path id="Vector" d="M5.95 8.075C5.38641 8.075 4.84591 7.85112 4.4474 7.4526C4.04888 7.05409 3.825 6.51359 3.825 5.95C3.825 5.38642 4.04888 4.84591 4.4474 4.4474C4.84591 4.04888 5.38641 3.825 5.95 3.825C6.51358 3.825 7.05409 4.04888 7.4526 4.4474C7.85112 4.84591 8.075 5.38642 8.075 5.95C8.075 6.22906 8.02003 6.50539 7.91324 6.7632C7.80645 7.02102 7.64993 7.25528 7.4526 7.4526C7.25528 7.64993 7.02102 7.80645 6.7632 7.91324C6.50539 8.02004 6.22906 8.075 5.95 8.075ZM5.95 0C4.37196 0 2.85856 0.626873 1.74271 1.74271C0.626873 2.85856 0 4.37196 0 5.95C0 10.4125 5.95 17 5.95 17C5.95 17 11.9 10.4125 11.9 5.95C11.9 4.37196 11.2731 2.85856 10.1573 1.74271C9.04144 0.626873 7.52804 0 5.95 0Z" fill="#F5D00B"/>
</svg>
